<svg viewBox="0 0 1400 500" xmlns="http://www.w3.org/2000/svg" preserveAspectRatio="xMidYMid slice">
<ellipse cx="868.0" cy="375.0" rx="2.0" ry="340.0" fill="none" stroke="rgba(255,255,255,0.08)" stroke-width="1"/>
<ellipse cx="868.0" cy="375.0" rx="170.0" ry="340.0" fill="none" stroke="rgba(255,255,255,0.08)" stroke-width="1"/>
<ellipse cx="868.0" cy="375.0" rx="294.4" ry="340.0" fill="none" stroke="rgba(255,255,255,0.08)" stroke-width="1"/>
<ellipse cx="868.0" cy="375.0" rx="340.0" ry="340.0" fill="none" stroke="rgba(255,255,255,0.08)" stroke-width="1"/>
<ellipse cx="868.0" cy="375.0" rx="294.4" ry="340.0" fill="none" stroke="rgba(255,255,255,0.08)" stroke-width="1"/>
<ellipse cx="868.0" cy="375.0" rx="170.0" ry="340.0" fill="none" stroke="rgba(255,255,255,0.08)" stroke-width="1"/>
<ellipse cx="868.0" cy="375.0" rx="2.0" ry="340.0" fill="none" stroke="rgba(255,255,255,0.08)" stroke-width="1"/>
<ellipse cx="868.0" cy="148.3" rx="253.4" ry="20.4" fill="none" stroke="rgba(255,255,255,0.08)" stroke-width="1"/>
<ellipse cx="868.0" cy="261.7" rx="320.6" ry="20.4" fill="none" stroke="rgba(255,255,255,0.08)" stroke-width="1"/>
<ellipse cx="868.0" cy="375.0" rx="340.0" ry="20.4" fill="none" stroke="rgba(255,255,255,0.08)" stroke-width="1"/>
<ellipse cx="868.0" cy="488.3" rx="320.6" ry="20.4" fill="none" stroke="rgba(255,255,255,0.08)" stroke-width="1"/>
<ellipse cx="868.0" cy="601.7" rx="253.4" ry="20.4" fill="none" stroke="rgba(255,255,255,0.08)" stroke-width="1"/>
<circle cx="868.0" cy="375.0" r="340.0" fill="none" stroke="rgba(255,255,255,0.14)" stroke-width="1.5"/>
<line x1="846.5" y1="236.3" x2="896.0" y2="278.5" stroke="rgba(255,255,255,0.10)" stroke-width="1"/>
<line x1="905.0" y1="476.9" x2="872.4" y2="490.4" stroke="rgba(255,255,255,0.10)" stroke-width="1"/>
<line x1="905.0" y1="476.9" x2="915.9" y2="482.8" stroke="rgba(255,255,255,0.10)" stroke-width="1"/>
<line x1="944.8" y1="501.8" x2="908.7" y2="494.1" stroke="rgba(255,255,255,0.10)" stroke-width="1"/>
<line x1="944.8" y1="501.8" x2="915.9" y2="482.8" stroke="rgba(255,255,255,0.10)" stroke-width="1"/>
<line x1="944.8" y1="501.8" x2="942.7" y2="492.1" stroke="rgba(255,255,255,0.10)" stroke-width="1"/>
<line x1="944.8" y1="501.8" x2="901.9" y2="455.4" stroke="rgba(255,255,255,0.10)" stroke-width="1"/>
<line x1="908.7" y1="494.1" x2="872.4" y2="490.4" stroke="rgba(255,255,255,0.10)" stroke-width="1"/>
<line x1="908.7" y1="494.1" x2="939.5" y2="576.4" stroke="rgba(255,255,255,0.10)" stroke-width="1"/>
<line x1="908.7" y1="494.1" x2="928.9" y2="406.9" stroke="rgba(255,255,255,0.10)" stroke-width="1"/>
<line x1="471.2" y1="46.4" x2="430.5" y2="29.0" stroke="rgba(255,255,255,0.10)" stroke-width="1"/>
<line x1="997.8" y1="273.4" x2="1015.5" y2="326.7" stroke="rgba(255,255,255,0.10)" stroke-width="1"/>
<line x1="1021.6" y1="268.1" x2="1014.8" y2="332.7" stroke="rgba(255,255,255,0.10)" stroke-width="1"/>
<line x1="529.9" y1="276.0" x2="578.5" y2="281.4" stroke="rgba(255,255,255,0.10)" stroke-width="1"/>
<line x1="865.9" y1="430.9" x2="860.7" y2="390.9" stroke="rgba(255,255,255,0.10)" stroke-width="1"/>
<line x1="865.9" y1="430.9" x2="801.2" y2="374.9" stroke="rgba(255,255,255,0.10)" stroke-width="1"/>
<line x1="865.9" y1="430.9" x2="915.9" y2="482.8" stroke="rgba(255,255,255,0.10)" stroke-width="1"/>
<line x1="865.9" y1="430.9" x2="928.9" y2="406.9" stroke="rgba(255,255,255,0.10)" stroke-width="1"/>
<line x1="863.2" y1="366.0" x2="801.2" y2="374.9" stroke="rgba(255,255,255,0.10)" stroke-width="1"/>
<line x1="860.7" y1="390.9" x2="794.8" y2="350.1" stroke="rgba(255,255,255,0.10)" stroke-width="1"/>
<line x1="860.7" y1="390.9" x2="901.9" y2="455.4" stroke="rgba(255,255,255,0.10)" stroke-width="1"/>
<line x1="951.7" y1="408.9" x2="999.5" y2="405.5" stroke="rgba(255,255,255,0.10)" stroke-width="1"/>
<line x1="951.7" y1="408.9" x2="989.2" y2="375.2" stroke="rgba(255,255,255,0.10)" stroke-width="1"/>
<line x1="951.7" y1="408.9" x2="915.9" y2="482.8" stroke="rgba(255,255,255,0.10)" stroke-width="1"/>
<line x1="951.7" y1="408.9" x2="942.7" y2="492.1" stroke="rgba(255,255,255,0.10)" stroke-width="1"/>
<line x1="830.7" y1="566.6" x2="837.2" y2="553.7" stroke="rgba(255,255,255,0.10)" stroke-width="1"/>
<line x1="852.8" y1="85.6" x2="852.6" y2="76.4" stroke="rgba(255,255,255,0.10)" stroke-width="1"/>
<line x1="896.0" y1="278.5" x2="909.8" y2="219.1" stroke="rgba(255,255,255,0.10)" stroke-width="1"/>
<line x1="1180.0" y1="388.0" x2="1126.0" y2="440.9" stroke="rgba(255,255,255,0.10)" stroke-width="1"/>
<line x1="983.6" y1="388.0" x2="1015.5" y2="326.7" stroke="rgba(255,255,255,0.10)" stroke-width="1"/>
<line x1="983.6" y1="388.0" x2="928.9" y2="406.9" stroke="rgba(255,255,255,0.10)" stroke-width="1"/>
<line x1="953.6" y1="563.2" x2="886.8" y2="512.2" stroke="rgba(255,255,255,0.10)" stroke-width="1"/>
<line x1="953.6" y1="563.2" x2="942.7" y2="492.1" stroke="rgba(255,255,255,0.10)" stroke-width="1"/>
<line x1="872.4" y1="490.4" x2="886.8" y2="512.2" stroke="rgba(255,255,255,0.10)" stroke-width="1"/>
<line x1="872.4" y1="490.4" x2="942.7" y2="492.1" stroke="rgba(255,255,255,0.10)" stroke-width="1"/>
<line x1="872.4" y1="490.4" x2="901.9" y2="455.4" stroke="rgba(255,255,255,0.10)" stroke-width="1"/>
<line x1="882.8" y1="380.2" x2="928.9" y2="406.9" stroke="rgba(255,255,255,0.10)" stroke-width="1"/>
<line x1="882.8" y1="380.2" x2="901.9" y2="455.4" stroke="rgba(255,255,255,0.10)" stroke-width="1"/>
<line x1="999.5" y1="405.5" x2="989.2" y2="375.2" stroke="rgba(255,255,255,0.10)" stroke-width="1"/>
<line x1="740.8" y1="485.5" x2="764.1" y2="415.1" stroke="rgba(255,255,255,0.10)" stroke-width="1"/>
<line x1="801.2" y1="374.9" x2="764.1" y2="415.1" stroke="rgba(255,255,255,0.10)" stroke-width="1"/>
<line x1="1218.7" y1="149.2" x2="1188.2" y2="83.2" stroke="rgba(255,255,255,0.10)" stroke-width="1"/>
<line x1="989.2" y1="375.2" x2="928.9" y2="406.9" stroke="rgba(255,255,255,0.10)" stroke-width="1"/>
<line x1="1164.6" y1="297.1" x2="1134.4" y2="276.0" stroke="rgba(255,255,255,0.10)" stroke-width="1"/>
<line x1="1126.0" y1="440.9" x2="1170.4" y2="484.5" stroke="rgba(255,255,255,0.10)" stroke-width="1"/>
<line x1="915.9" y1="482.8" x2="886.8" y2="512.2" stroke="rgba(255,255,255,0.10)" stroke-width="1"/>
<line x1="915.9" y1="482.8" x2="901.9" y2="455.4" stroke="rgba(255,255,255,0.10)" stroke-width="1"/>
<line x1="928.9" y1="406.9" x2="942.7" y2="492.1" stroke="rgba(255,255,255,0.10)" stroke-width="1"/>
<line x1="928.9" y1="406.9" x2="901.9" y2="455.4" stroke="rgba(255,255,255,0.10)" stroke-width="1"/>
<line x1="794.8" y1="350.1" x2="764.1" y2="415.1" stroke="rgba(255,255,255,0.10)" stroke-width="1"/>
<line x1="886.8" y1="512.2" x2="942.7" y2="492.1" stroke="rgba(255,255,255,0.10)" stroke-width="1"/>
<line x1="764.1" y1="415.1" x2="776.1" y2="402.0" stroke="rgba(255,255,255,0.10)" stroke-width="1"/>
<circle cx="35.0" cy="137.5" r="2.4" fill="rgba(255,255,255,0.31)"/>
<circle cx="846.5" cy="236.3" r="2.4" fill="rgba(255,255,255,0.34)"/>
<circle cx="121.7" cy="211.0" r="1.3" fill="rgba(255,255,255,0.40)"/>
<circle cx="905.0" cy="476.9" r="2.1" fill="rgba(255,255,255,0.36)"/>
<circle cx="944.8" cy="501.8" r="1.9" fill="rgba(255,255,255,0.43)"/>
<circle cx="908.7" cy="494.1" r="1.7" fill="rgba(255,255,255,0.45)"/>
<circle cx="9.1" cy="402.9" r="1.5" fill="rgba(255,255,255,0.50)"/>
<circle cx="476.4" cy="77.7" r="1.2" fill="rgba(255,255,255,0.57)"/>
<circle cx="471.2" cy="46.4" r="1.8" fill="rgba(255,255,255,0.50)"/>
<circle cx="997.8" cy="273.4" r="2.1" fill="rgba(255,255,255,0.48)"/>
<circle cx="1021.6" cy="268.1" r="1.6" fill="rgba(255,255,255,0.27)"/>
<circle cx="529.9" cy="276.0" r="2.0" fill="rgba(255,255,255,0.37)"/>
<circle cx="865.9" cy="430.9" r="1.6" fill="rgba(255,255,255,0.55)"/>
<circle cx="863.2" cy="366.0" r="2.1" fill="rgba(255,255,255,0.36)"/>
<circle cx="860.7" cy="390.9" r="1.6" fill="rgba(255,255,255,0.39)"/>
<circle cx="951.7" cy="408.9" r="1.7" fill="rgba(255,255,255,0.35)"/>
<circle cx="510.8" cy="185.1" r="1.4" fill="rgba(255,255,255,0.40)"/>
<circle cx="830.7" cy="566.6" r="2.3" fill="rgba(255,255,255,0.49)"/>
<circle cx="852.8" cy="85.6" r="2.3" fill="rgba(255,255,255,0.47)"/>
<circle cx="228.8" cy="189.7" r="1.6" fill="rgba(255,255,255,0.44)"/>
<circle cx="896.0" cy="278.5" r="1.2" fill="rgba(255,255,255,0.35)"/>
<circle cx="1180.0" cy="388.0" r="1.7" fill="rgba(255,255,255,0.45)"/>
<circle cx="983.6" cy="388.0" r="2.0" fill="rgba(255,255,255,0.41)"/>
<circle cx="953.6" cy="563.2" r="1.7" fill="rgba(255,255,255,0.32)"/>
<circle cx="440.5" cy="327.7" r="1.8" fill="rgba(255,255,255,0.57)"/>
<circle cx="1015.5" cy="326.7" r="2.2" fill="rgba(255,255,255,0.31)"/>
<circle cx="872.4" cy="490.4" r="1.3" fill="rgba(255,255,255,0.43)"/>
<circle cx="578.5" cy="281.4" r="2.0" fill="rgba(255,255,255,0.37)"/>
<circle cx="939.5" cy="576.4" r="2.2" fill="rgba(255,255,255,0.51)"/>
<circle cx="882.8" cy="380.2" r="2.0" fill="rgba(255,255,255,0.33)"/>
<circle cx="661.8" cy="258.0" r="1.4" fill="rgba(255,255,255,0.26)"/>
<circle cx="999.5" cy="405.5" r="1.5" fill="rgba(255,255,255,0.42)"/>
<circle cx="740.8" cy="485.5" r="2.2" fill="rgba(255,255,255,0.28)"/>
<circle cx="16.1" cy="360.4" r="1.7" fill="rgba(255,255,255,0.47)"/>
<circle cx="751.8" cy="133.4" r="1.4" fill="rgba(255,255,255,0.49)"/>
<circle cx="156.2" cy="217.4" r="1.8" fill="rgba(255,255,255,0.34)"/>
<circle cx="1181.9" cy="323.5" r="2.0" fill="rgba(255,255,255,0.25)"/>
<circle cx="801.2" cy="374.9" r="2.1" fill="rgba(255,255,255,0.52)"/>
<circle cx="1218.7" cy="149.2" r="1.3" fill="rgba(255,255,255,0.40)"/>
<circle cx="852.6" cy="76.4" r="1.4" fill="rgba(255,255,255,0.59)"/>
<circle cx="755.1" cy="389.3" r="1.8" fill="rgba(255,255,255,0.27)"/>
<circle cx="989.2" cy="375.2" r="1.5" fill="rgba(255,255,255,0.55)"/>
<circle cx="1164.6" cy="297.1" r="1.7" fill="rgba(255,255,255,0.53)"/>
<circle cx="430.5" cy="29.0" r="2.0" fill="rgba(255,255,255,0.60)"/>
<circle cx="1325.7" cy="42.8" r="1.9" fill="rgba(255,255,255,0.58)"/>
<circle cx="1126.0" cy="440.9" r="2.3" fill="rgba(255,255,255,0.46)"/>
<circle cx="179.7" cy="237.6" r="2.1" fill="rgba(255,255,255,0.43)"/>
<circle cx="837.2" cy="553.7" r="2.2" fill="rgba(255,255,255,0.44)"/>
<circle cx="915.9" cy="482.8" r="2.3" fill="rgba(255,255,255,0.51)"/>
<circle cx="281.6" cy="155.9" r="1.8" fill="rgba(255,255,255,0.34)"/>
<circle cx="909.8" cy="219.1" r="1.5" fill="rgba(255,255,255,0.47)"/>
<circle cx="928.9" cy="406.9" r="2.1" fill="rgba(255,255,255,0.43)"/>
<circle cx="794.8" cy="350.1" r="2.0" fill="rgba(255,255,255,0.35)"/>
<circle cx="1080.9" cy="431.0" r="1.3" fill="rgba(255,255,255,0.35)"/>
<circle cx="1134.4" cy="276.0" r="1.5" fill="rgba(255,255,255,0.36)"/>
<circle cx="886.8" cy="512.2" r="1.8" fill="rgba(255,255,255,0.30)"/>
<circle cx="1103.8" cy="517.2" r="1.5" fill="rgba(255,255,255,0.49)"/>
<circle cx="578.9" cy="402.6" r="2.0" fill="rgba(255,255,255,0.27)"/>
<circle cx="266.6" cy="48.5" r="1.7" fill="rgba(255,255,255,0.44)"/>
<circle cx="713.1" cy="419.4" r="1.7" fill="rgba(255,255,255,0.32)"/>
<circle cx="942.7" cy="492.1" r="1.7" fill="rgba(255,255,255,0.57)"/>
<circle cx="764.1" cy="415.1" r="1.9" fill="rgba(255,255,255,0.49)"/>
<circle cx="348.1" cy="95.1" r="2.2" fill="rgba(255,255,255,0.52)"/>
<circle cx="776.1" cy="402.0" r="1.7" fill="rgba(255,255,255,0.25)"/>
<circle cx="1014.8" cy="332.7" r="1.6" fill="rgba(255,255,255,0.51)"/>
<circle cx="770.5" cy="25.3" r="2.2" fill="rgba(255,255,255,0.58)"/>
<circle cx="1170.4" cy="484.5" r="1.7" fill="rgba(255,255,255,0.51)"/>
<circle cx="1188.2" cy="83.2" r="1.9" fill="rgba(255,255,255,0.46)"/>
<circle cx="901.9" cy="455.4" r="1.5" fill="rgba(255,255,255,0.33)"/>
<circle cx="601.0" cy="514.7" r="1.7" fill="rgba(255,255,255,0.26)"/>
</svg>